<?xml version="1.0" encoding="utf-8"?>
<!-- Generator: Adobe Illustrator 22.0.1, SVG Export Plug-In . SVG Version: 6.00 Build 0)  -->
<svg version="1.1" baseProfile="basic" id="Layer_1"
	 xmlns="http://www.w3.org/2000/svg" xmlns:xlink="http://www.w3.org/1999/xlink" x="0px" y="0px" viewBox="0 0 37.6 32"
	 xml:space="preserve">
<style type="text/css">
	.st0{fill:#FFFFFF;}
</style>
<g>
	<path class="st0" d="M12.4,21.2c-1.1,0-2.1,0-3.1,0c-0.6,0-1-0.2-1.4-0.5c-2-1.9-3.6-4.2-4.3-7C2.3,8.2,6.3,4.3,10.3,3.5
		c3.2-0.6,6,0.2,8.4,2.5c0.1,0,0.1,0,0.2,0c0.6-0.5,1.2-1,1.8-1.4c4.6-3,11.1-1.1,13.2,3.9c0.8,1.9,0.7,3.9,0.1,5.9
		c-0.7,2.2-2,4.2-3.6,5.8c-3.2,3.2-6.4,6.4-9.6,9.7c-1.1,1.1-2.4,1.1-3.6,0c-1.3-1.3-2.7-2.6-4-3.9c-0.4-0.4-0.7-0.9-0.7-1.5
		c0-0.9,0-1.9,0-2.8C12.4,21.6,12.4,21.5,12.4,21.2z M18.9,27.1C19,27,19,27,19.1,26.9c3-3.1,6.1-6.1,9.1-9.2
		c1.2-1.2,2.2-2.6,2.7-4.3c0.6-1.9,0.4-3.6-1-5.1c-2.8-2.9-7.3-2.4-9.4,1.1c-0.7,1.3-2.4,1.2-3.1,0c-1.5-2.7-4.5-3.7-7.3-2.6
		c-2.5,1-3.8,3.3-3.3,6c0.4,1.9,1.5,3.5,2.9,4.9c0.1,0.1,0.3,0.1,0.4,0.1c0.6,0,1.3,0,1.9,0c0.4,0,0.4-0.1,0.4-0.4
		c0-0.9,0-1.9,0-2.8c0-0.4,0.1-0.5,0.5-0.5c0.8,0,1.5,0,2.3,0c0.4,0,0.5,0.1,0.5,0.5c0,0.9,0,1.9,0,2.8c0,0.1,0,0.3,0,0.5
		c1.1,0,2.1,0,3.1,0c0.5,0,0.6,0.1,0.6,0.6c0,0.7,0,1.5,0,2.2c0,0.4-0.2,0.5-0.5,0.5c-0.9,0-1.8,0-2.7,0c-0.1,0-0.3,0-0.5,0
		c0,0.9,0,1.7,0,2.5c0,0.1,0,0.2,0.1,0.3C16.8,25.1,17.9,26.1,18.9,27.1z"/>
</g>
</svg>
